<svg width="43" height="43" viewBox="0 0 43 43" fill="none" xmlns="http://www.w3.org/2000/svg">
<g clip-path="url(#clip0_262_71)">
<path d="M1.79166 8.51088H6.69366C7.07822 9.92582 7.91768 11.1749 9.08254 12.0654C10.2474 12.9559 11.6729 13.4384 13.1392 13.4384C14.6054 13.4384 16.031 12.9559 17.1958 12.0654C18.3607 11.1749 19.2001 9.92582 19.5847 8.51088H41.2083C41.6835 8.51088 42.1392 8.32212 42.4752 7.98611C42.8112 7.65011 43 7.19439 43 6.71921C43 6.24403 42.8112 5.78832 42.4752 5.45231C42.1392 5.11631 41.6835 4.92755 41.2083 4.92755H19.5847C19.2001 3.51261 18.3607 2.26353 17.1958 1.373C16.031 0.48248 14.6054 0 13.1392 0C11.6729 0 10.2474 0.48248 9.08254 1.373C7.91768 2.26353 7.07822 3.51261 6.69366 4.92755H1.79166C1.31648 4.92755 0.860762 5.11631 0.524759 5.45231C0.188757 5.78832 -7.62939e-06 6.24403 -7.62939e-06 6.71921C-7.62939e-06 7.19439 0.188757 7.65011 0.524759 7.98611C0.860762 8.32212 1.31648 8.51088 1.79166 8.51088ZM13.1383 3.5838C13.7584 3.5838 14.3646 3.76769 14.8802 4.11221C15.3958 4.45673 15.7977 4.94642 16.035 5.51934C16.2723 6.09226 16.3344 6.72269 16.2135 7.3309C16.0925 7.93911 15.7939 8.49779 15.3554 8.93629C14.9169 9.37478 14.3582 9.6734 13.75 9.79438C13.1418 9.91537 12.5113 9.85327 11.9384 9.61596C11.3655 9.37865 10.8758 8.97678 10.5313 8.46116C10.1868 7.94554 10.0029 7.33934 10.0029 6.71921C10.0038 5.88794 10.3345 5.09099 10.9223 4.50319C11.5101 3.91539 12.307 3.58475 13.1383 3.5838Z" fill="white"/>
<path d="M41.2083 19.7066H36.3063C35.9224 18.2914 35.0833 17.0418 33.9185 16.1509C32.7537 15.2601 31.3281 14.7773 29.8617 14.7773C28.3953 14.7773 26.9696 15.2601 25.8049 16.1509C24.6401 17.0418 23.801 18.2914 23.4171 19.7066H1.79165C1.31647 19.7066 0.860754 19.8954 0.524752 20.2314C0.188749 20.5674 -1.52588e-05 21.0231 -1.52588e-05 21.4983C-1.52588e-05 21.9735 0.188749 22.4292 0.524752 22.7652C0.860754 23.1012 1.31647 23.29 1.79165 23.29H23.4171C23.801 24.7052 24.6401 25.9548 25.8049 26.8456C26.9696 27.7365 28.3953 28.2192 29.8617 28.2192C31.3281 28.2192 32.7537 27.7365 33.9185 26.8456C35.0833 25.9548 35.9224 24.7052 36.3063 23.29H41.2083C41.6835 23.29 42.1392 23.1012 42.4752 22.7652C42.8112 22.4292 43 21.9735 43 21.4983C43 21.0231 42.8112 20.5674 42.4752 20.2314C42.1392 19.8954 41.6835 19.7066 41.2083 19.7066ZM29.8617 24.6337C29.2416 24.6337 28.6354 24.4498 28.1197 24.1053C27.6041 23.7608 27.2023 23.2711 26.9649 22.6982C26.7276 22.1252 26.6655 21.4948 26.7865 20.8866C26.9075 20.2784 27.2061 19.7197 27.6446 19.2812C28.0831 18.8427 28.6418 18.5441 29.25 18.4231C29.8582 18.3021 30.4886 18.3642 31.0616 18.6016C31.6345 18.8389 32.1242 19.2407 32.4687 19.7564C32.8132 20.272 32.9971 20.8782 32.9971 21.4983C32.9962 22.3296 32.6655 23.1265 32.0777 23.7143C31.4899 24.3021 30.693 24.6328 29.8617 24.6337Z" fill="white"/>
<path d="M41.2083 34.49H19.5847C19.2001 33.0751 18.3607 31.826 17.1958 30.9355C16.031 30.045 14.6054 29.5625 13.1392 29.5625C11.6729 29.5625 10.2474 30.045 9.08253 30.9355C7.91767 31.826 7.07821 33.0751 6.69365 34.49H1.79165C1.31647 34.49 0.860754 34.6788 0.524752 35.0148C0.188749 35.3508 -1.52588e-05 35.8065 -1.52588e-05 36.2817C-1.52588e-05 36.7569 0.188749 37.2126 0.524752 37.5486C0.860754 37.8846 1.31647 38.0733 1.79165 38.0733H6.69365C7.07821 39.4883 7.91767 40.7374 9.08253 41.6279C10.2474 42.5184 11.6729 43.0009 13.1392 43.0009C14.6054 43.0009 16.031 42.5184 17.1958 41.6279C18.3607 40.7374 19.2001 39.4883 19.5847 38.0733H41.2083C41.6835 38.0733 42.1392 37.8846 42.4752 37.5486C42.8112 37.2126 43 36.7569 43 36.2817C43 35.8065 42.8112 35.3508 42.4752 35.0148C42.1392 34.6788 41.6835 34.49 41.2083 34.49ZM13.1383 39.4171C12.5181 39.4171 11.9119 39.2332 11.3963 38.8887C10.8807 38.5442 10.4788 38.0545 10.2415 37.4816C10.0042 36.9086 9.94213 36.2782 10.0631 35.67C10.1841 35.0618 10.4827 34.5031 10.9212 34.0646C11.3597 33.6261 11.9184 33.3275 12.5266 33.2065C13.1348 33.0856 13.7652 33.1476 14.3381 33.385C14.9111 33.6223 15.4008 34.0241 15.7453 34.5398C16.0898 35.0554 16.2737 35.6616 16.2737 36.2817C16.2723 37.1128 15.9415 37.9095 15.3538 38.4972C14.7661 39.0849 13.9694 39.4157 13.1383 39.4171Z" fill="white"/>
</g>
<defs>
<clipPath id="clip0_262_71">
<rect width="43" height="43" fill="white"/>
</clipPath>
</defs>
</svg>
