<svg width="43" height="44" viewBox="0 0 43 44" fill="none" xmlns="http://www.w3.org/2000/svg">
<g clip-path="url(#clip0_262_74)">
<path d="M21.5 0C16.2065 0.00386167 11.1014 2.01047 7.16667 5.63383V1.83333C7.16667 1.3471 6.9779 0.880788 6.6419 0.536971C6.3059 0.193154 5.85018 0 5.375 0C4.89982 0 4.4441 0.193154 4.1081 0.536971C3.7721 0.880788 3.58333 1.3471 3.58333 1.83333V7.33333C3.58333 8.79202 4.14963 10.191 5.15764 11.2224C6.16564 12.2539 7.5328 12.8333 8.95833 12.8333H14.3333C14.8085 12.8333 15.2642 12.6402 15.6002 12.2964C15.9362 11.9525 16.125 11.4862 16.125 11C16.125 10.5138 15.9362 10.0475 15.6002 9.70364C15.2642 9.35982 14.8085 9.16667 14.3333 9.16667H8.95833C8.89791 9.15751 8.83809 9.14465 8.77917 9.12817C11.6987 6.11935 15.5483 4.24064 19.6708 3.81272C23.7933 3.3848 27.9332 4.4342 31.3838 6.7818C34.8344 9.12939 37.3817 12.6296 38.5911 16.6851C39.8004 20.7405 39.5967 25.0997 38.0148 29.0186C36.4329 32.9375 33.5709 36.1731 29.9172 38.1732C26.2635 40.1733 22.0447 40.8138 17.9808 39.9854C13.917 39.157 10.2601 36.9111 7.63439 33.631C5.00865 30.3509 3.57683 26.24 3.58333 22C3.58333 21.5138 3.39457 21.0475 3.05857 20.7036C2.72256 20.3598 2.26685 20.1667 1.79167 20.1667C1.31649 20.1667 0.86077 20.3598 0.524767 20.7036C0.188764 21.0475 0 21.5138 0 22C0 26.3512 1.26095 30.6047 3.6234 34.2225C5.98585 37.8404 9.3437 40.6602 13.2723 42.3254C17.2009 43.9905 21.5239 44.4262 25.6944 43.5773C29.865 42.7284 33.696 40.6331 36.7028 37.5564C39.7096 34.4796 41.7573 30.5596 42.5869 26.292C43.4165 22.0244 42.9907 17.6009 41.3634 13.581C39.7361 9.56099 36.9804 6.12506 33.4448 3.70767C29.9091 1.29028 25.7523 0 21.5 0V0Z" fill="white"/>
<path d="M21.4999 11C21.0247 11 20.569 11.1932 20.233 11.537C19.897 11.8808 19.7082 12.3471 19.7082 12.8333V22C19.7083 22.4862 19.8971 22.9524 20.2332 23.2962L25.6082 28.7962C25.9461 29.1301 26.3987 29.3149 26.8684 29.3107C27.3382 29.3066 27.7876 29.1138 28.1198 28.7738C28.4519 28.4339 28.6404 27.9741 28.6445 27.4934C28.6485 27.0127 28.4679 26.5496 28.1416 26.2038L23.2915 21.241V12.8333C23.2915 12.3471 23.1028 11.8808 22.7668 11.537C22.4308 11.1932 21.9751 11 21.4999 11Z" fill="white"/>
</g>
<defs>
<clipPath id="clip0_262_74">
<rect width="43" height="44" fill="white"/>
</clipPath>
</defs>
</svg>
