<svg width="35" height="33" viewBox="0 0 35 33" fill="none" xmlns="http://www.w3.org/2000/svg">
<path fill-rule="evenodd" clip-rule="evenodd" d="M17.5145 0C7.82943 0 0 7.56247 0 16.9183C0 24.3969 5.01658 30.7273 11.9759 32.9679C12.846 33.1363 13.1647 32.6039 13.1647 32.156C13.1647 31.7637 13.136 30.4193 13.136 29.0186C8.26393 30.0271 7.24936 27.0018 7.24936 27.0018C6.46638 25.0411 5.30626 24.5371 5.30626 24.5371C3.71162 23.5007 5.42241 23.5007 5.42241 23.5007C7.19128 23.6128 8.11946 25.2373 8.11946 25.2373C9.68506 27.8141 12.2079 27.086 13.2228 26.6378C13.3676 25.5453 13.8319 24.7891 14.3248 24.369C10.439 23.9768 6.35059 22.5203 6.35059 16.0218C6.35059 14.1731 7.04609 12.6606 8.14814 11.4843C7.97426 11.0642 7.36516 9.32727 8.32237 7.0025C8.32237 7.0025 9.80121 6.55425 13.1357 8.73912C14.5633 8.36879 16.0356 8.1804 17.5145 8.17881C18.9933 8.17881 20.5008 8.37509 21.8929 8.73912C25.2277 6.55425 26.7066 7.0025 26.7066 7.0025C27.6638 9.32727 27.0543 11.0642 26.8805 11.4843C28.0116 12.6606 28.6784 14.1731 28.6784 16.0218C28.6784 22.5203 24.59 23.9486 20.6751 24.369C21.3132 24.9011 21.8639 25.9094 21.8639 27.5061C21.8639 29.7748 21.8352 31.5956 21.8352 32.1556C21.8352 32.6039 22.1543 33.1363 23.024 32.9682C29.9833 30.727 34.9999 24.3969 34.9999 16.9183C35.0286 7.56247 27.1705 0 17.5145 0Z" fill="white"/>
</svg>
