<svg width="43" height="28" viewBox="0 0 43 28" fill="none" xmlns="http://www.w3.org/2000/svg">
<g clip-path="url(#clip0_284_185)">
<path d="M12.4441 -0.000169779C13.6057 -0.0214725 14.7657 0.0961588 15.8987 0.350159C16.8526 0.555874 17.7583 0.938676 18.5677 1.47822C19.3151 2.01473 19.9065 2.73602 20.2826 3.56968C20.7147 4.5948 20.9232 5.69839 20.8944 6.80846C20.9435 8.02734 20.6283 9.23353 19.9882 10.2767C19.3147 11.262 18.3839 12.0488 17.2943 12.5538C18.7729 12.9476 20.0608 13.8494 20.9263 15.0972C21.7572 16.4194 22.1748 17.9542 22.1269 19.5096C22.1543 20.7498 21.8947 21.9797 21.3679 23.1057C20.8809 24.088 20.1679 24.9441 19.2859 25.6053C18.3778 26.2593 17.356 26.7432 16.2711 27.0329C15.146 27.3403 13.9838 27.4947 12.8165 27.4919H0V-0.000169779H12.4441ZM11.7045 11.1193C12.6172 11.1564 13.5157 10.8865 14.2529 10.3538C14.606 10.0433 14.8807 9.65559 15.055 9.22158C15.2292 8.78756 15.2983 8.31929 15.2567 7.85419C15.2803 7.31098 15.1708 6.77017 14.9375 6.27772C14.7395 5.88563 14.4318 5.55793 14.0508 5.33358C13.6649 5.08663 13.2313 4.92141 12.7775 4.84838C12.285 4.75416 11.784 4.7113 11.2825 4.72051H5.80616V11.1438H11.7045V11.1193ZM12.0238 22.8237C12.5757 22.8311 13.1265 22.7723 13.6642 22.6486C14.1555 22.5414 14.6214 22.3422 15.0368 22.0618C15.4437 21.7815 15.7725 21.4043 15.9927 20.9652C16.248 20.4053 16.3653 19.7936 16.3349 19.1803C16.3903 18.6214 16.3153 18.0574 16.1158 17.5315C15.9163 17.0056 15.5976 16.5318 15.184 16.1465C14.3074 15.5087 13.2331 15.1928 12.1461 15.2531H5.80616V22.8237H12.0238Z" fill="white"/>
<path d="M30.3964 22.7223C30.8521 23.1395 31.3889 23.4609 31.9742 23.6668C32.5596 23.8728 33.1812 23.9591 33.8013 23.9204C34.7844 23.945 35.7484 23.6495 36.5448 23.0796C37.1927 22.6636 37.6833 22.0478 37.9405 21.328H42.5709C42.0775 23.3771 40.8727 25.1907 39.1659 26.4533C37.5285 27.5268 35.5935 28.0704 33.6293 28.0088C32.2274 28.0269 30.8361 27.7666 29.538 27.2433C28.3638 26.7596 27.3107 26.0285 26.4523 25.101C25.5971 24.1292 24.9401 23.0033 24.5175 21.7852C24.0431 20.4236 23.8109 18.9912 23.8312 17.5515C23.8225 16.1358 24.0626 14.7294 24.5405 13.3948C25.1827 11.5173 26.4106 9.88889 28.0479 8.7434C29.6852 7.5979 31.6478 6.99417 33.6541 7.01884C35.1354 6.98826 36.6001 7.33065 37.9103 8.01377C39.0947 8.65522 40.1163 9.55356 40.8985 10.6412C41.6986 11.7825 42.2722 13.0635 42.5886 14.416C42.9356 15.8684 43.0594 17.3641 42.9557 18.8529H29.1638C29.0521 20.2517 29.4939 21.6387 30.3964 22.7223ZM36.4473 12.2668C36.0613 11.8855 35.5971 11.5903 35.0859 11.4011C34.5748 11.212 34.0285 11.1333 33.4839 11.1702C32.7614 11.143 32.0441 11.3011 31.4019 11.6292C30.8928 11.906 30.4433 12.2785 30.0789 12.7257C29.756 13.145 29.5154 13.6203 29.3696 14.127C29.2382 14.5496 29.1561 14.9857 29.1248 15.4267H37.6674C37.5929 14.277 37.1689 13.1763 36.4508 12.2685L36.4473 12.2668Z" fill="white"/>
<path d="M38.7279 1.83572H28.0236V4.5385H38.7279V1.83572Z" fill="white"/>
</g>
<defs>
<clipPath id="clip0_284_185">
<rect width="43" height="28" fill="white"/>
</clipPath>
</defs>
</svg>
