<svg width="165" height="24" viewBox="0 0 165 24" fill="none" xmlns="http://www.w3.org/2000/svg">
<path d="M3.70268 18.6986H0V2.01088H13.4643L13.4362 4.85745H3.70268V9.16648H12.3423V11.6736H3.70268V18.6986Z" fill="white"/>
<path d="M25.5916 14.5724H28.7332C28.3405 17.9412 25.2269 18.6986 21.9169 18.6986C17.6252 18.6986 14.6518 16.5571 14.6518 12.222C14.6518 9.61045 16.0824 5.66703 22.0011 5.66703C26.7697 5.66703 29.0418 8.53972 28.9296 12.9793H18.0179C18.046 14.8596 19.5046 16.1654 22.0852 16.1654C24.6379 16.1654 25.3672 15.3036 25.5916 14.5724ZM18.074 11.3602H25.6196C25.4794 9.66268 24.3854 8.40914 21.8047 8.40914C19.6729 8.40914 18.2704 9.71491 18.074 11.3602Z" fill="white"/>
<path d="M35.5517 18.6986H31.9612V0H35.5517V18.6986Z" fill="white"/>
<path d="M39.1017 2.61153C39.1017 1.80196 39.831 0.78346 41.3177 0.78346C42.7763 0.78346 43.5337 1.72361 43.5337 2.5593C43.5337 3.39499 42.8604 4.43961 41.3177 4.43961C39.831 4.43961 39.1017 3.44722 39.1017 2.61153ZM43.1129 18.6986H39.5224V5.84984H43.1129V18.6986Z" fill="white"/>
<path d="M50.6734 24H47.0829V5.82372H50.5893V8.69641C51.4308 7.12949 53.2541 5.82372 55.1615 5.71926C58.8081 5.51034 61.9217 8.04353 61.9217 12.2742C61.9217 16.0609 59.5655 18.6725 55.6664 18.8292C53.5907 18.9336 51.4869 17.5234 50.6734 16.0348V24ZM54.4602 16.0871C56.8165 16.0871 58.3032 14.3896 58.3032 12.2742C58.3032 10.1589 56.8445 8.46137 54.4602 8.46137C52.132 8.46137 50.6454 10.185 50.6454 12.2742C50.6454 14.3896 52.104 16.0871 54.4602 16.0871Z" fill="white"/>
<path d="M74.8993 14.5724H78.0409C77.6482 17.9412 74.5346 18.6986 71.2246 18.6986C66.9329 18.6986 63.9595 16.5571 63.9595 12.222C63.9595 9.61045 65.3901 5.66703 71.3088 5.66703C76.0774 5.66703 78.3495 8.53972 78.2373 12.9793H67.3256C67.3537 14.8596 68.8123 16.1654 71.3929 16.1654C73.9455 16.1654 74.6749 15.3036 74.8993 14.5724ZM67.3817 11.3602H74.9273C74.7871 9.66268 73.6931 8.40914 71.1124 8.40914C68.9806 8.40914 67.5781 9.71491 67.3817 11.3602Z" fill="white"/>
<path d="M96.9825 16.0087C99.3668 16.0087 101.555 15.3297 102.537 13.2144L106.379 13.2405C105.314 17.2361 101.078 18.8814 96.9825 18.8814C91.6529 18.8814 87.1368 16.4004 87.1368 10.3417C87.1368 4.15234 91.6529 1.82807 96.9825 1.82807C101.863 1.82807 105.706 3.83896 106.548 8.01741H102.733C101.947 5.53645 99.7315 4.67465 96.9825 4.67465C93.4762 4.67465 90.8395 6.03264 90.8395 10.3417C90.8395 14.5201 93.4762 16.0087 96.9825 16.0087Z" fill="white"/>
<path d="M107.981 12.2742C107.981 8.12187 110.59 5.71926 115.414 5.71926C120.239 5.71926 122.848 8.14799 122.848 12.2742C122.848 16.975 119.566 18.8292 115.414 18.8292C111.291 18.8292 107.981 16.975 107.981 12.2742ZM115.414 16.0871C117.771 16.0871 119.37 15.1991 119.37 12.2742C119.37 9.34929 117.771 8.46137 115.414 8.46137C113.086 8.46137 111.459 9.34929 111.459 12.2742C111.459 15.173 113.086 16.0871 115.414 16.0871Z" fill="white"/>
<path d="M138.07 9.71491H135.068C134.956 8.5136 133.554 8.09576 131.59 8.09576C129.879 8.06964 128.42 8.64418 128.56 9.76714C128.813 12.0653 138.434 9.79325 138.406 14.8335C138.378 18.124 134.956 18.8814 132.067 18.8814C127.495 18.8814 125.222 17.0794 125.166 14.4157H128.252C128.364 15.7998 130.58 16.2437 131.814 16.2699C132.88 16.3221 135.237 16.0348 135.237 14.8857C135.237 12.6659 125.335 14.8074 125.335 9.58433C125.335 6.94668 127.607 5.53645 131.674 5.53645C135.938 5.53645 137.929 7.1556 138.07 9.71491Z" fill="white"/>
<path d="M148.292 15.9565V18.6725L145.768 18.6986C143.636 18.6986 142.261 17.9674 142.261 15.5386V8.48749H140.017V5.87595H142.317V2.5593H145.852V5.87595H148.601V8.48749H145.852V14.6246C145.852 15.9826 146.104 16.0087 148.292 15.9565Z" fill="white"/>
<path d="M163.205 18.6986C161.83 18.6725 160.4 17.9674 160.372 16.3482C159.755 17.9412 158.212 18.803 156.36 18.9597C153.668 19.1948 150.638 18.0979 150.442 15.3819C150.189 11.8303 153.387 11.0207 156.445 11.0207H160.372V9.68879C160.372 8.61806 159.194 8.04353 157.342 8.04353C155.631 8.01741 154.425 8.59195 154.425 9.76714H151.227C151.143 6.65941 153.948 5.53645 157.258 5.53645C161.438 5.53645 163.906 7.02503 163.906 9.40152V15.4603C163.906 16.0348 164.187 16.4266 164.804 16.4266H165V18.6986H163.205ZM153.864 14.7813C153.752 16.1915 154.986 16.7138 156.473 16.7138C158.071 16.6877 159.979 15.7737 160.372 14.259V12.901L156.809 12.9271C155.463 12.9532 154.004 13.1882 153.864 14.7813Z" fill="white"/>
</svg>
